PathFileType	4	(X/Y/Z)	\\Move.snu.ac.kr\motion\Animal\091204_091205_Bird\091205_bird\Project 2\Capture day 2\Session 1\pigeon_029.trc
DataRate	CameraRate	NumFrames	NumMarkers	Units	OrigDataRate	OrigDataStartFrame	OrigNumFrames
240.0	240.0	21	14	mm	240.0	35	3339
Frame#	Time	14MarkersBird:Head			14MarkersBird:C_back			14MarkersBird:Spine			14MarkersBird:L-shoulder			14MarkersBird:L-elbow			14MarkersBird:L-wrist			14MarkersBird:L-hand			14MarkersBird:R-shoulder			14MarkersBird:R-elbow			14MarkersBird:R-Wrist			14MarkersBird:R-hand			14MarkersBird:C_Tail			14MarkersBird:L-Tale			14MarkersBird:R-Tale			
		X1	Y1	Z1	X2	Y2	Z2	X3	Y3	Z3	X4	Y4	Z4	X5	Y5	Z5	X6	Y6	Z6	X7	Y7	Z7	X8	Y8	Z8	X9	Y9	Z9	X10	Y10	Z10	X11	Y11	Z11	X12	Y12	Z12	X13	Y13	Z13	X14	Y14	Z14	

2470	10.288	64.14476	1763.69714	-1506.45361	117.34843	1734.19348	-1537.68201	156.14465	1706.35596	-1565.75342	109.35149	1736.16345	-1497.21912	133.63423	1718.71960	-1492.31946	101.89655	1713.01819	-1461.90356	86.58965	1694.42859	-1447.80176	74.42304	1730.37756	-1540.30261	71.41769	1714.11523	-1560.23511	39.87674	1703.32898	-1534.18237	19.85309	1677.65381	-1517.04773	223.47833	1603.17554	-1585.14868	223.85423	1650.84863	-1502.61682	138.43219	1616.37732	-1643.53369	
2471	10.292	57.78986	1766.87598	-1505.66821	111.41397	1739.63550	-1537.77771	150.68298	1712.32385	-1566.10022	104.18994	1741.66260	-1498.01953	130.63760	1724.73865	-1495.02905	98.51095	1723.81848	-1464.91113	80.67934	1705.74329	-1452.87915	69.38757	1735.53113	-1540.52332	68.60603	1719.37830	-1562.14160	37.29105	1713.01428	-1534.51721	19.37922	1687.95374	-1512.61243	218.58206	1610.08728	-1588.01599	219.86494	1654.73718	-1505.80115	133.39278	1622.59180	-1644.43896	
2472	10.296	51.39916	1769.72668	-1504.83521	105.15200	1744.75110	-1537.69226	145.02994	1718.08716	-1566.34412	98.64874	1746.94617	-1498.65186	127.94219	1732.06873	-1498.22949	97.38237	1735.77844	-1467.02930	79.09020	1718.32446	-1455.17981	64.34108	1740.62329	-1540.73743	66.28033	1725.91174	-1564.84680	33.83093	1723.75549	-1537.77185	16.82237	1698.94543	-1513.84424	213.41139	1616.79187	-1591.22705	215.47562	1657.80664	-1509.17383	128.26376	1628.32788	-1644.91113	
2473	10.300	45.02834	1772.29236	-1504.01123	98.69030	1749.49805	-1537.43726	139.24828	1723.60522	-1566.52124	92.76231	1751.98669	-1499.06287	124.90275	1740.45642	-1501.86096	97.46555	1748.24402	-1468.72473	81.21670	1730.81140	-1455.22925	59.28212	1745.67566	-1540.98242	64.35659	1733.56458	-1567.57227	29.75876	1734.91296	-1543.06592	12.50954	1709.38794	-1519.92725	207.91223	1623.06555	-1594.40076	210.64018	1660.46411	-1512.35266	123.15491	1633.53589	-1644.92017	
2474	10.304	38.73230	1774.64600	-1503.24487	92.16147	1753.86707	-1537.06262	133.39732	1728.84204	-1566.63733	86.60697	1756.75549	-1499.23279	120.92541	1749.40369	-1505.94641	97.73414	1760.79675	-1470.70728	86.37663	1742.82117	-1454.51819	54.02989	1750.56848	-1540.95947	62.82081	1742.08313	-1569.48181	25.72789	1746.13037	-1549.38733	7.36689	1718.99561	-1529.88818	202.00430	1628.70081	-1597.22253	205.51048	1663.27759	-1514.96838	118.01729	1638.27246	-1644.54016	
2475	10.308	32.55441	1776.88208	-1502.56775	85.63219	1757.92065	-1536.62695	127.51761	1733.78979	-1566.67249	80.28075	1761.23608	-1499.14856	115.65207	1758.29236	-1510.50696	97.36246	1773.08594	-1473.63110	93.64365	1754.72742	-1455.07727	48.74120	1755.21997	-1540.57056	61.62341	1751.13000	-1569.94812	22.49281	1757.32288	-1555.68567	2.65536	1728.32568	-1542.63208	195.60591	1633.55298	-1599.43835	200.34718	1666.79541	-1516.74792	112.61401	1642.71057	-1643.97412	
2476	10.313	26.54683	1779.12439	-1501.99976	79.15561	1761.71423	-1536.17151	121.64333	1738.46582	-1566.60938	73.89680	1765.41821	-1498.85229	109.01908	1766.55737	-1515.42444	95.82249	1784.75684	-1477.84009	101.48547	1767.11768	-1458.65710	43.56411	1759.57153	-1539.83752	60.62653	1760.28931	-1568.73730	20.51378	1768.52087	-1560.99268	-0.43280	1738.40796	-1556.84326	188.67894	1637.55884	-1600.89343	195.34004	1671.31458	-1517.55090	106.65182	1647.09692	-1643.47925	
2477	10.317	20.75794	1781.50647	-1501.54480	73.04303	1765.18640	-1535.71240	115.80949	1742.89502	-1566.45447	67.56339	1769.29443	-1498.49402	101.22707	1773.82300	-1520.40686	92.87782	1795.57690	-1483.29395	107.89720	1780.39905	-1465.86719	38.49953	1763.65466	-1538.84460	59.61035	1769.06970	-1566.00830	19.76505	1779.66003	-1564.58826	-1.13492	1750.23486	-1571.01978	181.27080	1640.75269	-1601.55994	190.48785	1676.77014	-1517.36682	99.95038	1651.68701	-1643.23645	
2478	10.321	15.20692	1784.13611	-1501.18408	67.21235	1768.45959	-1535.28406	110.05280	1747.09937	-1566.23193	61.34633	1772.88684	-1498.26196	92.61532	1780.08691	-1525.23621	88.51646	1805.52637	-1489.69006	111.12189	1794.62170	-1476.06934	33.51073	1767.53882	-1537.70251	58.42550	1777.18591	-1562.12842	19.83451	1790.53784	-1566.18701	0.75657	1764.29431	-1583.58765	173.54768	1643.28625	-1601.50562	185.66003	1682.84753	-1516.32324	92.50148	1656.66162	-1643.28003	
2479	10.325	9.88210	1787.06702	-1500.88904	61.62391	1771.57202	-1534.90234	104.41846	1751.08362	-1565.96558	55.27412	1776.24072	-1498.25134	83.53648	1785.52185	-1529.70728	82.80373	1814.69580	-1496.57617	110.21159	1809.38025	-1488.06152	28.55933	1771.29578	-1536.52295	57.02136	1784.47998	-1557.57178	20.16406	1800.90686	-1565.94800	4.93478	1780.35791	-1593.10144	165.88872	1645.47070	-1600.83240	180.76337	1689.18799	-1514.69763	84.41392	1662.06677	-1643.55786	
2480	10.329	4.74357	1790.29041	-1500.63281	56.25634	1774.53894	-1534.56653	98.95967	1754.81763	-1565.67834	49.38167	1779.41675	-1498.40186	74.46507	1789.90369	-1532.81689	75.74963	1823.10632	-1503.37476	104.99279	1823.83826	-1500.67285	23.60741	1774.99548	-1535.41663	54.71906	1789.92603	-1553.21619	20.23673	1810.58398	-1564.27136	10.70857	1797.59595	-1598.59302	158.84105	1647.70752	-1599.69983	175.82527	1695.49866	-1512.86060	75.86015	1667.88818	-1644.10718	
2481	10.333	-0.26839	1793.74707	-1500.39160	51.06281	1777.39026	-1534.27307	93.73760	1758.24255	-1565.41553	43.71959	1782.47229	-1498.58301	65.84702	1794.12158	-1534.70569	67.40381	1830.66699	-1509.40625	95.87027	1836.95215	-1512.84009	18.62489	1778.67737	-1534.47278	50.16928	1794.21826	-1549.68518	19.57271	1819.44189	-1561.64014	17.07650	1814.89246	-1599.83667	152.88457	1650.32776	-1598.41016	170.92651	1701.52576	-1511.14929	67.13627	1674.07422	-1645.06433	
2482	10.337	-5.21172	1797.35474	-1500.14294	45.99506	1780.15759	-1534.01892	88.79649	1761.30151	-1565.23718	38.33126	1785.46045	-1498.72168	57.71909	1798.44385	-1535.56470	58.12319	1837.29358	-1513.95496	83.81188	1847.92566	-1523.44312	13.55302	1782.11597	-1533.87354	42.51089	1798.44287	-1547.01514	17.66510	1827.30688	-1558.66296	22.67481	1831.18640	-1597.43188	148.28311	1653.54846	-1597.37573	166.12187	1707.04053	-1509.78174	58.71066	1680.46582	-1646.48865	
2483	10.342	-10.11928	1801.02966	-1499.86719	41.00482	1782.87244	-1533.79993	84.09769	1763.98486	-1565.14526	33.22406	1788.43201	-1498.81958	50.18628	1802.69690	-1535.42493	48.74536	1843.00146	-1516.34595	70.33663	1856.64587	-1531.25403	8.25349	1784.95190	-1533.89490	34.14387	1802.40894	-1545.94348	14.04410	1833.92749	-1556.22998	25.85001	1845.66797	-1592.84399	145.01740	1657.49683	-1596.94458	161.43941	1711.91284	-1508.87976	51.12066	1686.81885	-1648.30286	
2484	10.346	-14.99883	1804.69849	-1499.54578	36.04384	1785.56555	-1533.61316	79.45998	1766.34351	-1565.03882	28.34016	1791.43726	-1498.88867	43.29972	1806.72937	-1534.33923	40.42628	1847.84753	-1516.10205	57.30339	1863.70251	-1535.05249	2.71950	1787.69482	-1534.11938	26.08556	1806.09192	-1546.35803	8.47012	1839.00220	-1555.46558	25.00444	1857.70569	-1588.35217	142.70398	1662.14929	-1597.26660	156.89909	1716.17871	-1508.51477	44.78428	1692.86572	-1650.32617	
2485	10.350	-19.86290	1808.29968	-1499.17139	31.06384	1788.26880	-1533.45471	74.70403	1768.55420	-1564.87927	23.55888	1794.49939	-1498.90405	36.98903	1810.42871	-1532.31653	34.14314	1851.81860	-1513.15247	46.55202	1869.90540	-1533.86401	-3.06005	1790.32410	-1534.48022	18.65849	1809.47253	-1547.89514	1.06249	1842.19519	-1557.34070	19.24502	1866.56372	-1586.51440	140.70139	1667.33594	-1598.27966	152.51735	1720.03027	-1508.72156	39.85110	1698.36572	-1652.30322	
2486	10.354	-24.74809	1811.79224	-1498.76733	26.01657	1791.01331	-1533.32166	69.91677	1770.98621	-1564.89990	18.74217	1797.59680	-1498.78418	31.12580	1813.68872	-1529.31995	30.15343	1854.76526	-1507.95557	39.44099	1875.59583	-1527.33569	-9.02512	1792.72791	-1534.92480	11.84030	1812.31348	-1550.18433	-7.76575	1843.16077	-1562.10962	8.84067	1871.32104	-1589.11340	138.35239	1672.81873	-1599.79810	148.28680	1723.72156	-1509.46191	36.14933	1703.16650	-1653.96265	
2487	10.358	-29.70965	1815.17065	-1498.38745	20.85377	1793.83057	-1533.21008	65.36057	1774.04504	-1565.42834	13.77126	1800.68262	-1498.39136	25.68269	1816.70947	-1525.58667	28.00923	1856.41235	-1501.15771	36.31592	1880.21338	-1515.99243	-15.06319	1794.91541	-1535.31116	5.15197	1814.34741	-1552.83545	-17.53856	1841.72766	-1568.95911	-5.05454	1871.21631	-1596.14600	135.21313	1678.36694	-1601.63721	144.14790	1727.46350	-1510.58960	33.24473	1707.23193	-1655.08765	
2488	10.363	-34.78459	1818.47363	-1498.06250	15.52717	1796.75171	-1533.11682	60.84120	1777.71301	-1566.26880	8.53781	1803.70532	-1497.59070	20.95900	1820.24902	-1521.73743	26.84745	1856.45911	-1493.19165	36.15357	1882.46875	-1501.09729	-21.16485	1796.93262	-1535.55994	-2.03125	1815.46228	-1555.49951	-27.99125	1838.08875	-1576.31030	-21.15595	1866.11328	-1605.69189	131.17677	1683.84155	-1603.67053	140.00067	1731.41382	-1511.86597	30.57588	1710.65247	-1655.59692	
2489	10.367	-39.99263	1821.75378	-1497.76282	9.98851	1799.80823	-1533.03833	55.76126	1781.62488	-1566.78796	2.94746	1806.62097	-1496.37061	16.99596	1823.95935	-1517.62622	25.56832	1854.67676	-1484.32715	36.82655	1881.14673	-1484.24573	-27.44954	1798.78711	-1535.66895	-9.80530	1816.01477	-1557.72485	-39.12440	1832.66382	-1582.56689	-38.65335	1856.54553	-1614.87732	126.44790	1689.25464	-1605.78223	135.74231	1735.73779	-1513.01331	27.62600	1713.60535	-1655.55664	
2490	10.371	-45.36368	1825.02063	-1497.44434	4.19072	1803.03064	-1532.97107	49.80106	1785.56104	-1566.61121	-3.02018	1809.40588	-1494.91931	13.73312	1826.58179	-1512.46472	23.08802	1850.89233	-1474.92053	36.02552	1875.82056	-1467.00720	-34.04726	1800.47400	-1535.67957	-17.68680	1816.78577	-1559.50903	-50.95551	1825.76514	-1586.60339	-57.11047	1843.37305	-1621.10168	121.40336	1694.71448	-1607.78259	131.27644	1740.61169	-1513.75244	24.07022	1716.28479	-1655.09351	
